<?xml version="1.0" encoding="UTF-8"?>
<svg id="_Слой_1" data-name="Слой 1" xmlns="http://www.w3.org/2000/svg" viewBox="0 0 1000 1000">
  <defs>
    <style>
      .cls-1 {
        fill: #9ae600;
      }

      .cls-2 {
        fill: #111;
      }

      .cls-3 {
        fill: #86b300;
      }
    </style>
  </defs>
  <g>
    <rect class="cls-2" x="16.5" y="16.5" width="967" height="967" rx="158.5" ry="158.5"/>
    <path class="cls-3" d="m825,33c37.93,0,73.59,14.77,100.41,41.59,26.82,26.82,41.59,62.48,41.59,100.41v650c0,37.93-14.77,73.59-41.59,100.41-26.82,26.82-62.48,41.59-100.41,41.59H175c-37.93,0-73.59-14.77-100.41-41.59-26.82-26.82-41.59-62.48-41.59-100.41V175c0-37.93,14.77-73.59,41.59-100.41,26.82-26.82,62.48-41.59,100.41-41.59h650m0-33H175C78.35,0,0,78.35,0,175v650c0,96.65,78.35,175,175,175h650c96.65,0,175-78.35,175-175V175C1000,78.35,921.65,0,825,0h0Z"/>
  </g>
  <path class="cls-1" d="m629,375.35h-240v421.65h-180V197h175.98c.56,0,1.13,0,1.69.01l2.33.02,245.62,2.3c93.1.87,168.76,73.89,174.08,165.67h-.6c.26,3.42.43,6.87.49,10.35h.41v427.65h-180v-427.65h1.28"/>
</svg>