<svg xmlns="http://www.w3.org/2000/svg" id="_Слой_1" data-name="Слой 1" viewBox="3.65 351 992.71 298">
  <defs>
    <style>
      .cls-1 {
        fill: #fff;
      }

      .cls-2 {
        fill: #9ae600;
      }
    </style>
  </defs>
  <path class="cls-1" d="m73.57,410.5v26.4H3.65v-26.4h69.92Zm0,36.54v166.06H3.65v-166.06h69.92Z"/>
  <path class="cls-1" d="m467.57,495.37h-64.04v-25.72c0-8.96-.73-15.04-2.19-18.24-1.46-3.19-4.15-4.79-8.07-4.79s-6.56,1.4-7.9,4.2c-1.34,2.8-2.02,9.08-2.02,18.82v105.22c0,7.96,1.01,13.92,3.03,17.9,2.02,3.98,4.98,5.97,8.91,5.97,4.59,0,7.7-2.07,9.33-6.22,1.62-4.14,2.44-11.99,2.44-23.53v-26.56h60.51c-.11,17.82-.76,31.18-1.93,40.09s-4.93,18.04-11.26,27.4c-6.33,9.36-14.6,16.42-24.79,21.18-10.2,4.76-22.8,7.14-37.82,7.14-19.16,0-34.35-3.28-45.55-9.83-11.21-6.56-19.13-15.74-23.78-27.56-4.65-11.82-6.98-28.6-6.98-50.34v-63.37c0-18.94,1.9-33.22,5.71-42.86,3.81-9.64,11.93-18.24,24.37-25.8,12.44-7.56,27.56-11.35,45.38-11.35s32.83,3.76,45.38,11.26c12.55,7.51,20.9,16.98,25.04,28.41,4.14,11.43,6.22,27.62,6.22,48.57Z"/>
  <path class="cls-1" d="m641.37,489.49v54.63c0,20.06-1.01,34.77-3.03,44.12-2.02,9.36-6.33,18.1-12.94,26.22-6.61,8.13-15.1,14.12-25.46,17.98-10.37,3.87-22.27,5.8-35.72,5.8-15.02,0-27.73-1.65-38.15-4.96s-18.52-8.29-24.29-14.96c-5.77-6.67-9.89-14.73-12.35-24.2-2.47-9.47-3.7-23.67-3.7-42.61v-57.15c0-20.73,2.24-36.92,6.72-48.57,4.48-11.65,12.55-21.01,24.2-28.07,11.65-7.06,26.56-10.59,44.71-10.59,15.24,0,28.32,2.27,39.25,6.81,10.93,4.54,19.36,10.45,25.3,17.73,5.94,7.28,10,14.79,12.19,22.52s3.28,19.5,3.28,35.3Zm-67.9-16.81c0-11.43-.62-18.63-1.85-21.6-1.23-2.97-3.87-4.45-7.9-4.45s-6.72,1.49-8.07,4.45c-1.34,2.97-2.02,10.17-2.02,21.6v100.68c0,10.53.67,17.4,2.02,20.59s3.98,4.79,7.9,4.79,6.69-1.46,7.98-4.37c1.29-2.91,1.93-9.19,1.93-18.82v-102.86Z"/>
  <path class="cls-1" d="m818.18,362.09v272.12h-67.9v-16.18c-6.5,6.74-13.34,11.79-20.51,15.16-7.17,3.37-14.68,5.05-22.52,5.05-10.53,0-19.67-2.77-27.4-8.32s-12.69-11.96-14.87-19.24c-2.19-7.28-3.28-19.16-3.28-35.63v-104.38c0-17.14,1.09-29.3,3.28-36.47,2.19-7.17,7.2-13.47,15.04-18.91,7.84-5.43,17.2-8.15,28.07-8.15,8.4,0,16.11,1.52,23.11,4.55,7,3.03,13.36,7.58,19.08,13.65v-63.24h67.9Zm-67.9,105.22c0-8.18-.7-13.67-2.1-16.47-1.4-2.8-4.18-4.2-8.32-4.2s-6.75,1.26-8.15,3.78c-1.4,2.52-2.1,8.15-2.1,16.89v109.25c0,9.08.67,15.04,2.02,17.9s3.92,4.29,7.73,4.29c4.37,0,7.28-1.6,8.74-4.79,1.46-3.19,2.19-11.01,2.19-23.45v-103.2Z"/>
  <path class="cls-1" d="m996.35,526.64h-87.9v48.24c0,10.08.73,16.58,2.19,19.5,1.46,2.91,4.26,4.37,8.4,4.37,5.15,0,8.6-1.93,10.34-5.8,1.74-3.87,2.61-11.35,2.61-22.44v-29.41h64.37v16.47c0,13.78-.87,24.37-2.61,31.77-1.74,7.4-5.8,15.3-12.19,23.7-6.39,8.4-14.48,14.71-24.29,18.91-9.81,4.2-22.1,6.3-36.89,6.3s-27.01-2.07-37.99-6.22c-10.98-4.14-19.53-9.83-25.63-17.06-6.11-7.23-10.34-15.18-12.69-23.87-2.35-8.68-3.53-21.32-3.53-37.9v-65.05c0-19.5,2.63-34.88,7.9-46.14,5.27-11.26,13.89-19.89,25.88-25.88,11.99-5.99,25.77-8.99,41.35-8.99,19.05,0,34.76,3.61,47.15,10.84,12.38,7.23,21.07,16.81,26.05,28.74,4.98,11.93,7.48,28.71,7.48,50.34v29.58Zm-68.07-36.3v-16.3c0-11.54-.62-18.99-1.85-22.35-1.23-3.36-3.76-5.04-7.56-5.04-4.71,0-7.62,1.43-8.74,4.29-1.12,2.86-1.68,10.56-1.68,23.11v16.3h19.83Z"/>
  <path class="cls-2" d="m252.18,438.7h-118.02v207.35H45.64v-295.05h86.54c.28,0,.56,0,.83,0h1.15s120.78,1.14,120.78,1.14c45.78.43,82.99,36.34,85.6,81.47h-.3c.13,1.68.21,3.38.24,5.09h.2v210.3h-88.51v-210.3h.63"/>
</svg>